<svg width="32" height="32" viewBox="0 0 32 32" fill="none" xmlns="http://www.w3.org/2000/svg">
<g clip-path="url(#clip0_12_89)">
<rect width="32" height="32" rx="8" fill="#155DFC"/>
<path d="M7.99999 18C7.81076 18.0007 7.62522 17.9476 7.46495 17.847C7.30467 17.7464 7.17623 17.6024 7.09454 17.4317C7.01286 17.261 6.98129 17.0706 7.00349 16.8827C7.0257 16.6948 7.10077 16.517 7.21999 16.37L17.12 6.17004C17.1943 6.08432 17.2955 6.0264 17.407 6.00577C17.5185 5.98515 17.6337 6.00305 17.7337 6.05654C17.8337 6.11004 17.9126 6.19594 17.9573 6.30015C18.0021 6.40436 18.0101 6.52069 17.98 6.63004L16.06 12.65C16.0034 12.8016 15.9844 12.9646 16.0046 13.125C16.0248 13.2855 16.0837 13.4387 16.1761 13.5715C16.2685 13.7042 16.3918 13.8126 16.5353 13.8872C16.6788 13.9618 16.8382 14.0006 17 14H24C24.1892 13.9994 24.3748 14.0525 24.535 14.1531C24.6953 14.2537 24.8238 14.3977 24.9054 14.5684C24.9871 14.7391 25.0187 14.9295 24.9965 15.1174C24.9743 15.3053 24.8992 15.4831 24.78 15.63L14.88 25.83C14.8057 25.9158 14.7045 25.9737 14.593 25.9943C14.4815 26.0149 14.3663 25.997 14.2663 25.9435C14.1663 25.89 14.0874 25.8041 14.0427 25.6999C13.9979 25.5957 13.9899 25.4794 14.02 25.37L15.94 19.35C15.9966 19.1985 16.0156 19.0355 15.9954 18.875C15.9752 18.7145 15.9163 18.5614 15.8239 18.4286C15.7315 18.2959 15.6082 18.1875 15.4647 18.1129C15.3212 18.0382 15.1617 17.9995 15 18H7.99999Z" stroke="white" stroke-width="2" stroke-linecap="round" stroke-linejoin="round"/>
</g>
<defs>
<clipPath id="clip0_12_89">
<rect width="32" height="32" fill="white"/>
</clipPath>
</defs>
</svg>
